<svg width="16" height="16" viewBox="0 0 16 16" fill="none" xmlns="http://www.w3.org/2000/svg">
<path d="M11.5 1.14258H4.5C2.567 1.14258 1 2.70958 1 4.64258V11.6426C1 13.5756 2.567 15.1426 4.5 15.1426H11.5C13.433 15.1426 15 13.5756 15 11.6426V4.64258C15 2.70958 13.433 1.14258 11.5 1.14258Z" stroke="#5B1211" stroke-width="1.5" stroke-linecap="round" stroke-linejoin="round"/>
<path d="M10.7999 7.70179C10.8863 8.28436 10.7868 8.87934 10.5156 9.4021C10.2443 9.92486 9.81514 10.3488 9.28908 10.6136C8.76302 10.8783 8.16685 10.9705 7.58539 10.8769C7.00393 10.7834 6.46677 10.5088 6.05033 10.0924C5.63388 9.67596 5.35935 9.1388 5.26579 8.55734C5.17222 7.97588 5.26439 7.37972 5.52917 6.85365C5.79395 6.32759 6.21787 5.89841 6.74063 5.62716C7.26339 5.35591 7.85837 5.2564 8.44094 5.34279C9.03519 5.43091 9.58534 5.70781 10.0101 6.1326C10.4349 6.55739 10.7118 7.10754 10.7999 7.70179Z" stroke="#5B1211" stroke-width="1.5" stroke-linecap="round" stroke-linejoin="round"/>
<path d="M11.85 4.29297H11.8578" stroke="#5B1211" stroke-width="1.5" stroke-linecap="round" stroke-linejoin="round"/>
</svg>
