<svg width="82" height="75" viewBox="0 0 82 75" fill="none" xmlns="http://www.w3.org/2000/svg">
<path d="M25.5616 31.8504C26.7051 33.0939 27.3363 34.9476 27.3363 37.058C27.3363 39.197 26.6797 41.085 25.5079 42.3512C24.3898 43.5405 22.8614 44.2392 21.0329 44.2392C19.2611 44.2392 17.7892 43.6574 16.7221 42.5537C15.4682 41.2846 14.7889 39.3396 14.7889 37.1436C14.7889 34.9733 15.4682 33.091 16.6429 31.819C17.7354 30.6041 19.2639 29.9111 21.0329 29.9111C22.9152 29.9168 24.4691 30.607 25.5616 31.8504ZM17.8288 37.0894C17.8288 39.9242 19.128 41.8322 21.0556 41.8322C23.0623 41.8322 24.2908 39.8672 24.2908 37.0894C24.2908 34.2232 22.9888 32.3466 21.0046 32.3466C19.0007 32.3438 17.8288 34.2803 17.8288 37.0894Z" fill="white"/>
<path d="M47.0476 62.4516C47.0787 64.7074 49.0628 66.3901 51.6216 66.3901C52.8953 66.3901 54.0954 66.0393 55.2134 65.4318L56.0314 67.3968C54.6105 68.3836 52.7113 68.877 51.047 68.877C46.255 68.877 44.118 65.3719 44.118 61.6359C44.118 57.7345 46.4985 54.5489 50.362 54.5489C54.1548 54.5489 56.5069 57.358 56.5069 61.6074C56.5069 61.8099 56.5069 62.1008 56.5069 62.4487H47.0476V62.4516ZM50.2998 56.896C48.426 56.896 47.0193 58.513 47.0193 60.227H53.4161C53.3849 58.63 52.2896 56.896 50.2998 56.896Z" fill="white"/>
<path d="M71.2368 72.4018C71.8482 72.63 72.5982 72.7669 73.4672 72.7669C74.605 72.7669 75.5504 72.5701 76.2127 72.2165C78.4346 70.9987 77.9336 67.9528 77.9336 66.9917C76.4052 68.1525 74.973 68.8797 73.102 68.8797C71.0953 68.8797 68.9724 67.545 68.9724 63.9915V54.8425H71.9585V63.0304C71.9585 64.502 72.2473 66.1875 74.0814 66.1875C75.4258 66.1875 76.725 65.3747 77.7921 64.5334V54.8425H80.7782V64.1484V68.7343C80.7782 72.7697 78.5309 75 73.5068 75C72.2869 75 71.217 74.8288 70.3169 74.5294L71.2368 72.4018Z" fill="white"/>
<path d="M72.8106 30.259H69.8216V43.9511H72.8106V30.259Z" fill="white"/>
<path d="M73.0172 27.0676C73.0172 27.9688 72.2812 28.7388 71.3302 28.7388C70.3537 28.7388 69.6178 27.9944 69.6178 27.0676C69.6178 26.1378 70.3537 25.3906 71.3302 25.3906C72.2812 25.3906 73.0172 26.1122 73.0172 27.0676Z" fill="white"/>
<path d="M32.1314 31.6336C32.0295 31.1231 31.871 30.6497 31.6219 30.259H29.3179V43.9511H32.3069V35.4124C32.3069 34.9761 32.3295 34.5397 32.5192 34.2203C33.5749 32.4407 35.3949 32.1841 37.0479 32.1841L38.1121 29.7285C36.0233 29.7314 33.7787 29.7656 32.1314 31.6336Z" fill="white"/>
<path d="M50.7924 31.6336C50.6933 31.1231 50.5319 30.6497 50.28 30.259H47.9789V43.9511H50.9678V35.4124C50.9678 34.9761 50.9905 34.5397 51.183 34.2203C52.2415 32.4407 54.0559 32.1841 55.7117 32.1841L56.7731 29.7285C54.6871 29.7314 52.4425 29.7656 50.7924 31.6336Z" fill="white"/>
<path d="M61.6898 56.2743C61.5907 55.7609 61.4294 55.2932 61.1775 54.9025H58.8792V68.5918H61.854V60.0531C61.854 59.6168 61.8766 59.1804 62.0662 58.861C63.1248 57.0785 64.942 56.8247 66.5978 56.8247L67.6564 54.3692C65.576 54.3692 63.3314 54.4034 61.6898 56.2743Z" fill="white"/>
<path d="M35.6439 49.521H32.6578V68.589H35.6439V49.521Z" fill="white"/>
<path d="M41.5877 49.521H38.6016V68.589H41.5877V49.521Z" fill="white"/>
<path d="M13.439 65.6657C12.7512 66.0421 11.6558 66.3045 10.2491 66.3045C5.91564 66.3045 3.2437 63.2929 3.2437 59.0064C3.2437 55.0479 5.57033 51.9222 10.4783 51.9222C11.619 51.9222 12.6861 52.1333 13.6399 52.447L14.6844 50.02C13.5381 49.6521 12.0662 49.3469 10.2774 49.3469C4.10699 49.3441 0 53.5364 0 59.2945C0 64.793 3.70223 68.8769 9.47635 68.8769C12.4342 68.8769 14.9335 68.0042 16.4562 67.1943V59.323H11.503V61.7813H13.4418V65.6657H13.439Z" fill="white"/>
<path d="M45.3098 41.0849C44.8655 41.3872 44.3786 41.6667 43.6823 41.6667C42.7879 41.6667 42.2416 41.1448 42.2416 40.0696V32.6061H44.8004L45.8108 30.259H42.2416V26.4488H39.3744V41.1476C39.3744 42.9358 40.3226 44.242 42.5586 44.242C43.7333 44.242 44.9617 43.8342 46.1448 43.0499L45.3098 41.0849Z" fill="white"/>
<path d="M81.1037 41.0849C80.6678 41.3872 80.1668 41.6667 79.4762 41.6667C78.5818 41.6667 78.0412 41.1448 78.0412 40.0696V32.6061H80.5999L81.6019 30.259H78.0383V26.4488H75.1683V41.1476C75.1683 42.9358 76.1108 44.242 78.3497 44.242C79.5215 44.242 80.7612 43.8342 81.9359 43.0499L81.1037 41.0849Z" fill="white"/>
<path d="M64.4749 39.7302V37.5541L62.2671 37.6425C60.232 37.6996 59.3404 38.424 59.3404 39.6931C59.3404 40.9137 60.1471 41.8092 61.6925 41.8092C63.3201 41.8092 64.4749 40.6285 64.4749 39.7302ZM67.5233 43.951H65.4259C65.0353 43.4947 64.8174 42.8844 64.69 42.2085C63.8352 43.0213 62.5728 44.2419 60.6877 44.2419C58.3102 44.2419 56.3458 42.5878 56.3458 39.9241C56.3458 37.1178 58.4517 35.5549 61.9756 35.4123L64.5004 35.3268V34.514C64.5004 33.0738 63.2748 32.087 61.7463 32.087C60.2292 32.087 59.131 32.703 58.3186 33.2534L57.3252 31.3056C59.0461 30.0792 60.6311 29.7313 62.3775 29.7313C66.108 29.7313 67.5799 32.6574 67.5176 34.3685V43.951H67.5233Z" fill="white"/>
<path d="M26.8327 64.3681V62.192L24.6249 62.2805C22.5898 62.3375 21.6983 63.0619 21.6983 64.331C21.6983 65.5516 22.5049 66.4471 24.0504 66.4471C25.675 66.4471 26.8327 65.2664 26.8327 64.3681ZM29.8783 68.5889H27.7809C27.3903 68.1326 27.1723 67.5223 27.045 66.8464C26.1902 67.6592 24.9278 68.8798 23.0427 68.8798C20.6651 68.8798 18.7008 67.2257 18.7008 64.562C18.7008 61.7557 20.8067 60.1928 24.3306 60.0502L26.8553 59.9647V59.1519C26.8553 57.7117 25.6298 56.7249 24.1013 56.7249C22.5842 56.7249 21.486 57.3409 20.6736 57.8913L19.6801 55.9435C21.4011 54.7171 22.9861 54.3692 24.7325 54.3692C28.463 54.3692 29.9349 57.2953 29.8726 59.0064V68.5889H29.8783Z" fill="white"/>
<path d="M50.3594 6.96727C51.4887 8.21072 52.1114 10.0645 52.1114 12.1749C52.1114 14.3195 51.4632 16.1961 50.3056 17.4738C49.196 18.6602 47.6902 19.3532 45.8731 19.3532C44.121 19.3532 42.6605 18.7771 41.6133 17.6734C40.3679 16.4015 39.6942 14.465 39.6942 12.2633C39.6942 10.0958 40.3679 8.21357 41.5312 6.93876C42.6067 5.72383 44.121 5.02796 45.8731 5.02796C47.7412 5.02511 49.2781 5.72098 50.3594 6.96727ZM42.5813 12.2063C42.5813 15.1124 43.9201 17.0717 45.9042 17.0717C47.9648 17.0717 49.2328 15.0525 49.2328 12.2063C49.2328 9.27163 47.8855 7.34658 45.8533 7.34658C43.7927 7.34373 42.5813 9.32867 42.5813 12.2063Z" fill="white"/>
<path d="M38.5111 5.38156H35.6779V19.068H38.5111V5.38156Z" fill="white"/>
<path d="M3.36554 19.0708H0.543579V0H3.44479L11.8031 13.9573V0H14.6251V19.0708H11.7833L3.36554 5.11351V19.0708Z" fill="white"/>
<path d="M33.9595 16.4043C33.5151 16.7066 33.1188 16.9034 32.4254 16.9034C31.5366 16.9034 30.9875 16.3815 30.9875 15.312V7.63176H33.4443L34.4548 5.38159H30.9847V1.57141H28.2703V16.2617C28.2703 18.0556 29.0656 19.3589 31.3045 19.3589C32.4707 19.3589 33.6057 19.0338 34.786 18.2523L33.9595 16.4043Z" fill="white"/>
<path d="M23.9935 14.8614V12.6112L21.7094 12.6997C19.6007 12.7595 18.6808 13.5068 18.6808 14.8215C18.6808 16.082 19.5129 17.0089 21.115 17.0089C22.7906 17.0118 23.9935 15.7911 23.9935 14.8614ZM26.8523 19.0053H24.9729C24.5823 18.5547 24.3615 17.9415 24.237 17.2713C23.3765 18.0812 22.1198 19.2962 20.2319 19.2962C17.8486 19.2962 15.8956 17.6449 15.8956 14.9841C15.8956 13.5809 16.4221 12.4886 17.3873 11.7329C18.3525 10.9714 19.7592 10.6035 21.5254 10.535L24.053 10.4495V9.57394C24.053 8.13372 22.8246 7.14695 21.299 7.14695C19.7733 7.14695 18.4657 7.76012 17.6505 8.31339L16.6627 6.36267C18.3808 5.1392 19.963 4.79126 21.7122 4.79126C25.4371 4.79126 26.9146 7.71449 26.8523 9.4285V19.0053Z" fill="white"/>
<path d="M73.6938 14.8614V12.6112L71.4096 12.6997C69.3009 12.7595 68.381 13.5068 68.381 14.8215C68.381 16.082 69.2132 17.0089 70.8152 17.0089C72.4909 17.0118 73.6938 15.7911 73.6938 14.8614ZM76.5526 19.0053H74.6731C74.2825 18.5547 74.0618 17.9415 73.9372 17.2713C73.0768 18.0812 71.8172 19.2962 69.9321 19.2962C67.5489 19.2962 65.5959 17.6449 65.5959 14.9841C65.5959 13.5809 66.1224 12.4886 67.0875 11.7329C68.0527 10.9714 69.4595 10.6035 71.2257 10.535L73.7532 10.4495V9.57394C73.7532 8.13372 72.5248 7.14695 70.9992 7.14695C69.4736 7.14695 68.1659 7.76012 67.3508 8.31339L66.3629 6.36267C68.081 5.1392 69.6632 4.79126 71.4125 4.79126C75.1373 4.79126 76.6148 7.71449 76.5526 9.4285V19.0053Z" fill="white"/>
<path d="M56.0317 6.91596C57.5545 5.76093 58.6244 5.03369 60.4076 5.03369C62.3295 5.03369 64.3589 6.36839 64.3589 9.9276V19.0709H61.5398V10.8801C61.5398 9.40285 61.2511 7.60613 59.4849 7.60613C58.197 7.60613 57.2346 8.53871 56.1704 9.37718V19.0709H53.3428V5.38163H55.2873C55.692 5.7809 55.9128 6.32276 56.0317 6.91596Z" fill="white"/>
<path d="M80.778 0H77.9391V19.0708H80.778V0Z" fill="white"/>
<path d="M38.7149 2.1874C38.7149 3.05153 38.0016 3.78733 37.1044 3.78733C36.1816 3.78733 35.4712 3.07435 35.4712 2.1874C35.4712 1.30045 36.1788 0.587463 37.1044 0.587463C38.0044 0.587463 38.7149 1.28048 38.7149 2.1874Z" fill="white"/>
<path d="M0.653687 25.499C2.31799 25.114 4.09835 24.8545 6.71368 24.8545C10.7131 24.8545 14.1521 27.0191 14.1521 30.9262C14.1521 33.7924 12.2302 37.1748 7.11278 37.1748H3.67095V43.951H0.653687V25.499ZM6.75331 27.5096C5.54754 27.5096 4.55122 27.5895 3.67095 27.7235V34.7165H7.31657C9.90077 34.7165 11.0528 33.2392 11.0528 31.0147C11.0528 28.9584 9.30921 27.5096 6.75331 27.5096Z" fill="white"/>
</svg>
